<?xml version="1.0" encoding="utf-8"?>
<!-- Generator: Adobe Illustrator 26.0.0, SVG Export Plug-In . SVG Version: 6.00 Build 0)  -->
<svg version="1.1" id="Layer_1" xmlns="http://www.w3.org/2000/svg" xmlns:xlink="http://www.w3.org/1999/xlink" x="0px" y="0px"
	 viewBox="0 0 20 20" style="enable-background:new 0 0 20 20;" xml:space="preserve">
<style type="text/css">
	.st0{fill:#00C9FF;}
</style>
<path class="st0" d="M11.1,10C10.1,9.8,9,9.6,8,9.4C6.3,9.1,4.6,8.8,2.9,8.5c-0.2,0-0.3-0.1-0.4-0.3C2,6,1.5,3.9,1,1.7
	C1,1.4,1,1.1,1.2,0.9c0.3-0.2,0.6-0.1,0.9,0c4,2.1,8.1,4.1,12.1,6.2c1.4,0.7,2.9,1.5,4.3,2.2C18.8,9.5,19,9.7,19,10
	c0,0.3-0.2,0.5-0.5,0.6C13,13.5,7.6,16.3,2.1,19.1c-0.2,0.1-0.4,0.2-0.7,0.2c-0.3-0.1-0.5-0.4-0.4-0.8c0.4-1.8,0.8-3.6,1.2-5.4
	c0.1-0.4,0.2-0.7,0.2-1.1c0-0.2,0.1-0.3,0.3-0.3c1.9-0.3,3.7-0.6,5.6-1C9.3,10.4,10.2,10.2,11.1,10C11.1,10,11.1,10,11.1,10z"/>
</svg>
